<mxfile host="65bd71144e">
    <diagram name="Page-1" id="bhFTTE4U6HHQqo8OBmXR">
        <mxGraphModel dx="1541" dy="1694" grid="1" gridSize="10" guides="1" tooltips="1" connect="1" arrows="1" fold="1" page="1" pageScale="1" pageWidth="850" pageHeight="1100" math="0" shadow="0">
            <root>
                <mxCell id="0"/>
                <mxCell id="1" parent="0"/>
                <mxCell id="110" value="" style="rounded=0;whiteSpace=wrap;html=1;align=center;verticalAlign=middle;horizontal=1;fillColor=#6d8764;strokeColor=#3A5431;fontColor=#ffffff;" parent="1" vertex="1">
                    <mxGeometry x="140" y="130" width="180.26" height="110" as="geometry"/>
                </mxCell>
                <mxCell id="3" value="Validator" style="rounded=0;whiteSpace=wrap;html=1;fillColor=#808080;fontColor=#000000;fontSize=15;strokeWidth=1;strokeColor=#000000;" parent="1" vertex="1">
                    <mxGeometry x="180" y="270" width="100" height="50" as="geometry"/>
                </mxCell>
                <mxCell id="4" value="Express" style="rounded=0;whiteSpace=wrap;html=1;fillColor=#808080;fontColor=#000000;fontSize=15;strokeWidth=1;strokeColor=#000000;" parent="1" vertex="1">
                    <mxGeometry x="-360" y="-8.410000000000004" width="109.59" height="50" as="geometry"/>
                </mxCell>
                <mxCell id="5" value="MongoDB" style="rounded=0;whiteSpace=wrap;html=1;fillColor=#808080;fontColor=#000000;fontSize=15;strokeWidth=1;strokeColor=#000000;" parent="1" vertex="1">
                    <mxGeometry x="525" y="-348.79" width="120" height="45" as="geometry"/>
                </mxCell>
                <mxCell id="6" value="BCrypt" style="rounded=0;whiteSpace=wrap;html=1;fillColor=#808080;fontColor=#000000;fontSize=15;strokeWidth=1;strokeColor=#000000;" parent="1" vertex="1">
                    <mxGeometry x="208.75" y="-348.79" width="94.5" height="48.79" as="geometry"/>
                </mxCell>
                <mxCell id="99" style="edgeStyle=none;html=1;exitX=0.5;exitY=1;exitDx=0;exitDy=0;entryX=0.5;entryY=0;entryDx=0;entryDy=0;fontSize=14;strokeWidth=3;" parent="1" source="98" target="3" edge="1">
                    <mxGeometry relative="1" as="geometry"/>
                </mxCell>
                <mxCell id="98" value="EmailValidatorAdapter" style="rounded=0;whiteSpace=wrap;html=1;fontSize=15;fillColor=#FFFFFF;fontColor=#000000;strokeColor=#000000;strokeWidth=1;" parent="1" vertex="1">
                    <mxGeometry x="150" y="153.42999999999998" width="160" height="38.02" as="geometry"/>
                </mxCell>
                <mxCell id="116" value="&lt;span style=&quot;font-size: 14px;&quot;&gt;&lt;b&gt;Utils&lt;/b&gt;&lt;/span&gt;" style="text;html=1;align=right;verticalAlign=bottom;resizable=0;points=[];autosize=1;strokeColor=none;fillColor=none;spacing=2;" parent="1" vertex="1">
                    <mxGeometry x="270.26046470582384" y="100.00281076523083" width="50" height="30" as="geometry"/>
                </mxCell>
                <mxCell id="13" value="" style="rounded=0;whiteSpace=wrap;html=1;align=center;verticalAlign=middle;horizontal=1;fillColor=#647687;strokeColor=#314354;fontColor=#ffffff;strokeWidth=3;" parent="1" vertex="1">
                    <mxGeometry x="340" y="126.21" width="460" height="183.79" as="geometry"/>
                </mxCell>
                <mxCell id="18" value="Controller" style="rounded=1;whiteSpace=wrap;html=1;dashed=1;fontSize=15;fillColor=#FFFFFF;fontColor=#000000;strokeColor=#000000;strokeWidth=2;" parent="1" vertex="1">
                    <mxGeometry x="670" y="250" width="95.65" height="37.29" as="geometry"/>
                </mxCell>
                <mxCell id="21" style="edgeStyle=none;html=1;exitX=0.75;exitY=1;exitDx=0;exitDy=0;fontSize=14;strokeWidth=3;" parent="1" source="2" target="18" edge="1">
                    <mxGeometry relative="1" as="geometry"/>
                </mxCell>
                <mxCell id="108" style="edgeStyle=none;html=1;exitX=0;exitY=0.5;exitDx=0;exitDy=0;entryX=1;entryY=0.5;entryDx=0;entryDy=0;fontSize=14;strokeWidth=3;" parent="1" source="2" target="105" edge="1">
                    <mxGeometry relative="1" as="geometry"/>
                </mxCell>
                <mxCell id="145" style="edgeStyle=none;html=1;exitX=0.5;exitY=1;exitDx=0;exitDy=0;entryX=0.5;entryY=0;entryDx=0;entryDy=0;fontSize=15;fontColor=#000000;strokeWidth=3;" parent="1" source="2" target="143" edge="1">
                    <mxGeometry relative="1" as="geometry"/>
                </mxCell>
                <mxCell id="146" style="edgeStyle=none;html=1;exitX=0.25;exitY=1;exitDx=0;exitDy=0;entryX=0.5;entryY=0;entryDx=0;entryDy=0;fontSize=15;fontColor=#000000;strokeWidth=3;" parent="1" source="2" target="144" edge="1">
                    <mxGeometry relative="1" as="geometry"/>
                </mxCell>
                <mxCell id="2" value="SignUp&lt;span style=&quot;background-color: initial; font-size: 15px;&quot;&gt;Controller&lt;/span&gt;" style="rounded=0;whiteSpace=wrap;html=1;fontSize=15;fillColor=#FFFFFF;fontColor=#000000;strokeColor=#000000;strokeWidth=1;" parent="1" vertex="1">
                    <mxGeometry x="580" y="150" width="136.47" height="41.45" as="geometry"/>
                </mxCell>
                <mxCell id="105" value="EmailValidator" style="rounded=1;whiteSpace=wrap;html=1;dashed=1;fontSize=15;fillColor=#FFFFFF;fontColor=#000000;strokeColor=#000000;strokeWidth=3;" parent="1" vertex="1">
                    <mxGeometry x="370" y="151.45" width="110" height="40" as="geometry"/>
                </mxCell>
                <mxCell id="14" value="&lt;font style=&quot;font-size: 14px;&quot;&gt;&lt;b&gt;Presentation&lt;/b&gt;&lt;/font&gt;" style="text;html=1;align=right;verticalAlign=bottom;resizable=0;points=[];autosize=1;strokeColor=none;fillColor=none;spacing=2;" parent="1" vertex="1">
                    <mxGeometry x="689.9950632911392" y="96.21285714285713" width="110" height="30" as="geometry"/>
                </mxCell>
                <mxCell id="119" value="" style="rounded=0;whiteSpace=wrap;html=1;align=center;verticalAlign=middle;horizontal=1;fillColor=#a0522d;strokeColor=#6D1F00;fontColor=#ffffff;" parent="1" vertex="1">
                    <mxGeometry x="850" y="-68.63000000000002" width="196.36" height="183.79" as="geometry"/>
                </mxCell>
                <mxCell id="120" value="&lt;font style=&quot;font-size: 14px;&quot;&gt;&lt;b&gt;Domain&lt;/b&gt;&lt;/font&gt;" style="text;html=1;align=right;verticalAlign=bottom;resizable=0;points=[];autosize=1;strokeColor=none;fillColor=none;spacing=2;" parent="1" vertex="1">
                    <mxGeometry x="976.3550632911392" y="-113.78714285714288" width="70" height="30" as="geometry"/>
                </mxCell>
                <mxCell id="121" value="AddAccount" style="rounded=1;whiteSpace=wrap;html=1;dashed=1;fontSize=15;fillColor=#FFFFFF;fontColor=#000000;strokeColor=#000000;strokeWidth=3;" parent="1" vertex="1">
                    <mxGeometry x="881.71" y="2.6499999999999737" width="132.94" height="38.94" as="geometry"/>
                </mxCell>
                <mxCell id="123" value="" style="rounded=0;whiteSpace=wrap;html=1;align=center;verticalAlign=middle;horizontal=1;fillColor=#76608a;strokeColor=#432D57;fontColor=#ffffff;" parent="1" vertex="1">
                    <mxGeometry x="140" y="-80" width="660" height="158.63" as="geometry"/>
                </mxCell>
                <mxCell id="124" value="&lt;font style=&quot;font-size: 14px;&quot;&gt;&lt;b&gt;Data&lt;br&gt;&lt;/b&gt;&lt;/font&gt;" style="text;html=1;align=right;verticalAlign=bottom;resizable=0;points=[];autosize=1;strokeColor=none;fillColor=none;spacing=2;" parent="1" vertex="1">
                    <mxGeometry x="749.9950632911392" y="-98.62714285714287" width="50" height="30" as="geometry"/>
                </mxCell>
                <mxCell id="129" style="edgeStyle=none;html=1;exitX=0.5;exitY=1;exitDx=0;exitDy=0;entryX=0.25;entryY=1;entryDx=0;entryDy=0;fontSize=14;strokeWidth=3;" parent="1" source="125" target="121" edge="1">
                    <mxGeometry relative="1" as="geometry">
                        <Array as="points">
                            <mxPoint x="468" y="100"/>
                            <mxPoint x="915" y="100"/>
                        </Array>
                    </mxGeometry>
                </mxCell>
                <mxCell id="132" style="edgeStyle=none;html=1;exitX=0;exitY=0.5;exitDx=0;exitDy=0;entryX=0.5;entryY=1;entryDx=0;entryDy=0;fontSize=14;strokeWidth=3;" parent="1" source="125" target="131" edge="1">
                    <mxGeometry relative="1" as="geometry">
                        <Array as="points">
                            <mxPoint x="256" y="43"/>
                        </Array>
                    </mxGeometry>
                </mxCell>
                <mxCell id="137" style="edgeStyle=none;html=1;exitX=1;exitY=0.5;exitDx=0;exitDy=0;entryX=0.5;entryY=1;entryDx=0;entryDy=0;fontSize=14;strokeWidth=3;" parent="1" source="125" target="136" edge="1">
                    <mxGeometry relative="1" as="geometry">
                        <Array as="points">
                            <mxPoint x="694" y="43"/>
                        </Array>
                    </mxGeometry>
                </mxCell>
                <mxCell id="160" style="edgeStyle=none;html=1;exitX=0.5;exitY=0;exitDx=0;exitDy=0;entryX=0.5;entryY=1;entryDx=0;entryDy=0;strokeWidth=3;fontSize=15;fontColor=#000000;" parent="1" source="125" target="159" edge="1">
                    <mxGeometry relative="1" as="geometry"/>
                </mxCell>
                <mxCell id="125" value="DbAddAccount" style="rounded=0;whiteSpace=wrap;html=1;fontSize=15;fillColor=#FFFFFF;fontColor=#000000;strokeColor=#000000;strokeWidth=1;" parent="1" vertex="1">
                    <mxGeometry x="410" y="20" width="115" height="45.16" as="geometry"/>
                </mxCell>
                <mxCell id="126" value="" style="rounded=0;whiteSpace=wrap;html=1;align=center;verticalAlign=middle;horizontal=1;fillColor=#f0a30a;strokeColor=#BD7000;fontColor=#000000;" parent="1" vertex="1">
                    <mxGeometry x="150" y="-243.79" width="650.13" height="130" as="geometry"/>
                </mxCell>
                <mxCell id="107" style="edgeStyle=none;html=1;exitX=1;exitY=0.5;exitDx=0;exitDy=0;entryX=0;entryY=0.5;entryDx=0;entryDy=0;fontSize=14;strokeWidth=3;" parent="1" source="98" target="105" edge="1">
                    <mxGeometry relative="1" as="geometry"/>
                </mxCell>
                <mxCell id="127" value="&lt;font style=&quot;font-size: 14px;&quot;&gt;&lt;b&gt;Infra&lt;br&gt;&lt;/b&gt;&lt;/font&gt;" style="text;html=1;align=right;verticalAlign=bottom;resizable=0;points=[];autosize=1;strokeColor=none;fillColor=none;spacing=2;" parent="1" vertex="1">
                    <mxGeometry x="739.9950632911392" y="-273.7871428571429" width="50" height="30" as="geometry"/>
                </mxCell>
                <mxCell id="130" style="edgeStyle=none;html=1;exitX=0.5;exitY=0;exitDx=0;exitDy=0;entryX=0.5;entryY=1;entryDx=0;entryDy=0;fontSize=14;strokeWidth=3;" parent="1" source="128" target="6" edge="1">
                    <mxGeometry relative="1" as="geometry"/>
                </mxCell>
                <mxCell id="133" style="edgeStyle=none;html=1;exitX=0.5;exitY=1;exitDx=0;exitDy=0;entryX=0.5;entryY=0;entryDx=0;entryDy=0;fontSize=14;strokeWidth=3;" parent="1" source="128" target="131" edge="1">
                    <mxGeometry relative="1" as="geometry"/>
                </mxCell>
                <mxCell id="128" value="BcryptAdapter" style="rounded=0;whiteSpace=wrap;html=1;fontSize=15;fillColor=#FFFFFF;fontColor=#000000;strokeColor=#000000;strokeWidth=1;" parent="1" vertex="1">
                    <mxGeometry x="201" y="-203.26" width="110" height="49.47" as="geometry"/>
                </mxCell>
                <mxCell id="122" style="edgeStyle=none;html=1;exitX=1;exitY=0.5;exitDx=0;exitDy=0;entryX=0.5;entryY=1;entryDx=0;entryDy=0;fontSize=14;strokeWidth=3;" parent="1" source="2" target="121" edge="1">
                    <mxGeometry relative="1" as="geometry">
                        <Array as="points">
                            <mxPoint x="948" y="171"/>
                        </Array>
                    </mxGeometry>
                </mxCell>
                <mxCell id="131" value="Hasher" style="rounded=1;whiteSpace=wrap;html=1;dashed=1;fontSize=15;fillColor=#FFFFFF;fontColor=#000000;strokeColor=#000000;strokeWidth=3;" parent="1" vertex="1">
                    <mxGeometry x="200.99999999999997" y="-62.03" width="109" height="46.04" as="geometry"/>
                </mxCell>
                <mxCell id="135" style="edgeStyle=none;html=1;entryX=0.75;entryY=1;entryDx=0;entryDy=0;fontSize=14;strokeWidth=3;" parent="1" source="134" target="5" edge="1">
                    <mxGeometry relative="1" as="geometry"/>
                </mxCell>
                <mxCell id="138" style="edgeStyle=none;html=1;exitX=0.5;exitY=1;exitDx=0;exitDy=0;entryX=0.5;entryY=0;entryDx=0;entryDy=0;fontSize=14;strokeWidth=3;" parent="1" source="134" target="136" edge="1">
                    <mxGeometry relative="1" as="geometry"/>
                </mxCell>
                <mxCell id="134" value="AddUserMongoRepo" style="rounded=0;whiteSpace=wrap;html=1;fontSize=15;fillColor=#FFFFFF;fontColor=#000000;strokeColor=#000000;strokeWidth=1;" parent="1" vertex="1">
                    <mxGeometry x="617.12" y="-202.73" width="153.18" height="48.94" as="geometry"/>
                </mxCell>
                <mxCell id="136" value="AddUserRepo" style="rounded=1;whiteSpace=wrap;html=1;dashed=1;fontSize=15;fillColor=#FFFFFF;fontColor=#000000;strokeColor=#000000;strokeWidth=3;" parent="1" vertex="1">
                    <mxGeometry x="638.7099999999999" y="-62.03" width="110" height="46.04" as="geometry"/>
                </mxCell>
                <mxCell id="157" style="edgeStyle=none;html=1;exitX=0.5;exitY=1;exitDx=0;exitDy=0;entryX=0.5;entryY=1;entryDx=0;entryDy=0;strokeWidth=3;fontSize=15;fontColor=#000000;" parent="1" source="141" target="13" edge="1">
                    <mxGeometry relative="1" as="geometry">
                        <Array as="points">
                            <mxPoint x="-55" y="360"/>
                            <mxPoint x="570" y="360"/>
                        </Array>
                    </mxGeometry>
                </mxCell>
                <mxCell id="158" style="edgeStyle=none;html=1;exitX=0.5;exitY=0;exitDx=0;exitDy=0;entryX=0;entryY=0.5;entryDx=0;entryDy=0;strokeWidth=3;fontSize=15;fontColor=#000000;" parent="1" source="141" target="126" edge="1">
                    <mxGeometry relative="1" as="geometry">
                        <Array as="points">
                            <mxPoint x="-55" y="-179"/>
                        </Array>
                    </mxGeometry>
                </mxCell>
                <mxCell id="169" style="edgeStyle=none;html=1;exitX=1;exitY=0.5;exitDx=0;exitDy=0;entryX=0;entryY=0.5;entryDx=0;entryDy=0;strokeWidth=3;fontSize=15;fontColor=#000000;" parent="1" source="141" target="123" edge="1">
                    <mxGeometry relative="1" as="geometry"/>
                </mxCell>
                <mxCell id="170" style="edgeStyle=none;html=1;exitX=1;exitY=0.75;exitDx=0;exitDy=0;entryX=0;entryY=0.5;entryDx=0;entryDy=0;strokeWidth=3;fontSize=15;fontColor=#000000;" parent="1" source="141" target="110" edge="1">
                    <mxGeometry relative="1" as="geometry"/>
                </mxCell>
                <mxCell id="141" value="" style="rounded=0;whiteSpace=wrap;html=1;align=center;verticalAlign=middle;horizontal=1;fillColor=#76608a;strokeColor=#432D57;fontColor=#ffffff;" parent="1" vertex="1">
                    <mxGeometry x="-180" y="-142.42" width="250" height="440" as="geometry"/>
                </mxCell>
                <mxCell id="142" value="&lt;font style=&quot;font-size: 14px;&quot;&gt;&lt;b&gt;Main&lt;br&gt;&lt;/b&gt;&lt;/font&gt;" style="text;html=1;align=right;verticalAlign=bottom;resizable=0;points=[];autosize=1;strokeColor=none;fillColor=none;spacing=2;" parent="1" vertex="1">
                    <mxGeometry x="9.995063291139218" y="-172.4171428571429" width="60" height="30" as="geometry"/>
                </mxCell>
                <mxCell id="143" value="HttpResponse" style="rounded=1;whiteSpace=wrap;html=1;dashed=1;fontSize=15;fillColor=#FFFFFF;fontColor=#000000;strokeColor=#000000;strokeWidth=2;" parent="1" vertex="1">
                    <mxGeometry x="511.02" y="250" width="122.31" height="37.29" as="geometry"/>
                </mxCell>
                <mxCell id="144" value="HttpRequest" style="rounded=1;whiteSpace=wrap;html=1;dashed=1;fontSize=15;fillColor=#FFFFFF;fontColor=#000000;strokeColor=#000000;strokeWidth=2;" parent="1" vertex="1">
                    <mxGeometry x="370" y="250" width="113.94" height="37.29" as="geometry"/>
                </mxCell>
                <mxCell id="149" value="SignUpComposer" style="rounded=0;whiteSpace=wrap;html=1;fontSize=15;fillColor=#FFFFFF;fontColor=#000000;strokeColor=#000000;strokeWidth=1;" parent="1" vertex="1">
                    <mxGeometry x="-135" y="-86.48000000000003" width="160" height="38.02" as="geometry"/>
                </mxCell>
                <mxCell id="155" style="edgeStyle=none;html=1;exitX=0;exitY=0.5;exitDx=0;exitDy=0;entryX=1;entryY=0.5;entryDx=0;entryDy=0;strokeWidth=3;fontSize=15;fontColor=#000000;" parent="1" source="150" target="4" edge="1">
                    <mxGeometry relative="1" as="geometry"/>
                </mxCell>
                <mxCell id="150" value="ExpressRouterAdapter" style="rounded=0;whiteSpace=wrap;html=1;fontSize=15;fillColor=#FFFFFF;fontColor=#000000;strokeColor=#000000;strokeWidth=1;" parent="1" vertex="1">
                    <mxGeometry x="-145" y="-2.4200000000000017" width="180" height="38.02" as="geometry"/>
                </mxCell>
                <mxCell id="154" style="edgeStyle=none;html=1;exitX=0.5;exitY=0;exitDx=0;exitDy=0;entryX=0.5;entryY=1;entryDx=0;entryDy=0;strokeWidth=3;fontSize=15;fontColor=#000000;" parent="1" source="151" target="150" edge="1">
                    <mxGeometry relative="1" as="geometry"/>
                </mxCell>
                <mxCell id="151" value="SignUpRouter" style="rounded=0;whiteSpace=wrap;html=1;fontSize=15;fillColor=#FFFFFF;fontColor=#000000;strokeColor=#000000;strokeWidth=1;" parent="1" vertex="1">
                    <mxGeometry x="-145" y="87.58000000000001" width="180" height="38.02" as="geometry"/>
                </mxCell>
                <mxCell id="153" style="edgeStyle=none;html=1;exitX=0.5;exitY=0;exitDx=0;exitDy=0;entryX=0.5;entryY=1;entryDx=0;entryDy=0;strokeWidth=3;fontSize=15;fontColor=#000000;" parent="1" source="152" target="151" edge="1">
                    <mxGeometry relative="1" as="geometry"/>
                </mxCell>
                <mxCell id="152" value="App" style="rounded=0;whiteSpace=wrap;html=1;fontSize=15;fillColor=#FFFFFF;fontColor=#000000;strokeColor=#000000;strokeWidth=1;" parent="1" vertex="1">
                    <mxGeometry x="-145" y="179.03000000000003" width="180" height="38.02" as="geometry"/>
                </mxCell>
                <mxCell id="159" value="LoadUserByEmailRepo" style="rounded=1;whiteSpace=wrap;html=1;dashed=1;fontSize=15;fillColor=#FFFFFF;fontColor=#000000;strokeColor=#000000;strokeWidth=3;" parent="1" vertex="1">
                    <mxGeometry x="375" y="-62.03" width="185" height="46.04" as="geometry"/>
                </mxCell>
                <mxCell id="164" style="edgeStyle=none;html=1;exitX=0.5;exitY=1;exitDx=0;exitDy=0;entryX=0.5;entryY=0;entryDx=0;entryDy=0;strokeWidth=3;fontSize=15;fontColor=#000000;" parent="1" source="161" target="159" edge="1">
                    <mxGeometry relative="1" as="geometry"/>
                </mxCell>
                <mxCell id="165" style="edgeStyle=none;html=1;exitX=0.5;exitY=0;exitDx=0;exitDy=0;entryX=0.25;entryY=1;entryDx=0;entryDy=0;strokeWidth=3;fontSize=15;fontColor=#000000;" parent="1" source="161" target="5" edge="1">
                    <mxGeometry relative="1" as="geometry"/>
                </mxCell>
                <mxCell id="161" value="LoadUserByEmailRepoMongo" style="rounded=0;whiteSpace=wrap;html=1;fontSize=15;fillColor=#FFFFFF;fontColor=#000000;strokeColor=#000000;strokeWidth=1;" parent="1" vertex="1">
                    <mxGeometry x="357.5" y="-202.73" width="220" height="49.47" as="geometry"/>
                </mxCell>
            </root>
        </mxGraphModel>
    </diagram>
</mxfile>